<?xml version="1.0" standalone="no"?>
<!DOCTYPE svg PUBLIC "-//W3C//DTD SVG 20010904//EN"
 "http://www.w3.org/TR/2001/REC-SVG-20010904/DTD/svg10.dtd">
<svg version="1.0" xmlns="http://www.w3.org/2000/svg"
 width="288.000000pt" height="288.000000pt" viewBox="0 0 288.000000 288.000000"
 preserveAspectRatio="xMidYMid meet">
<metadata>
Created by potrace 1.11, written by Peter Selinger 2001-2013
</metadata>
<g transform="translate(0.000000,288.000000) scale(0.100000,-0.100000)"
fill="#000000" stroke="none">
<path d="M940 1930 c-27 -27 -34 -60 -28 -134 10 -117 51 -156 174 -164 106
-7 156 27 140 93 -4 15 -24 35 -54 51 -64 37 -81 53 -103 97 -39 76 -88 98
-129 57z"/>
<path d="M1660 1930 c-30 -30 -34 -62 -20 -168 24 -195 20 -185 65 -200 22 -8
62 -23 89 -33 l49 -19 25 22 c45 41 82 109 82 150 0 42 -10 54 -89 111 -25 18
-59 56 -76 85 -17 29 -38 57 -46 63 -23 15 -58 10 -79 -11z"/>
<path d="M1541 1521 c-30 -30 -27 -76 5 -97 24 -16 27 -16 52 3 22 17 27 28
27 64 0 42 -1 44 -32 47 -22 2 -38 -3 -52 -17z"/>
<path d="M1368 1349 c-27 -15 -41 -81 -28 -129 15 -55 44 -66 115 -45 76 22
617 22 689 0 86 -26 117 -4 118 84 0 90 -29 110 -122 86 -30 -8 -65 -15 -77
-15 -12 0 -57 -15 -100 -34 l-78 -34 -179 0 -179 0 -48 49 c-48 50 -75 59
-111 38z"/>
</g>
</svg>
